<svg width="30" height="30" fill="none" xmlns="http://www.w3.org/2000/svg"><path d="M21.72 0H8.28C3.714 0 0 3.714 0 8.279V21.72C0 26.286 3.714 30 8.279 30H21.72c4.566 0 8.28-3.714 8.28-8.279V8.28C30 3.714 26.286 0 21.72 0zm5.618 21.721a5.624 5.624 0 01-5.617 5.617H8.28a5.623 5.623 0 01-5.617-5.617V8.28A5.624 5.624 0 018.28 2.663h13.44a5.624 5.624 0 015.617 5.617v13.44z" fill="#21243D"/><path d="M15 7.27c-4.262 0-7.73 3.468-7.73 7.73 0 4.263 3.468 7.73 7.73 7.73 4.262 0 7.73-3.467 7.73-7.73 0-4.262-3.468-7.73-7.73-7.73zm0 12.798A5.074 5.074 0 019.932 15 5.074 5.074 0 0115 9.932 5.074 5.074 0 0120.069 15 5.074 5.074 0 0115 20.068zm8.055-15.055a1.96 1.96 0 00-1.38.572 1.962 1.962 0 00-.573 1.38c0 .513.21 1.017.574 1.38.362.363.866.572 1.379.572a1.97 1.97 0 001.38-.571c.364-.364.571-.868.571-1.38a1.96 1.96 0 00-.571-1.381 1.96 1.96 0 00-1.38-.572z" fill="#21243D"/></svg>