<svg width="37" height="30" fill="none" xmlns="http://www.w3.org/2000/svg"><path d="M36.923 3.552a15.782 15.782 0 01-4.361 1.195 7.526 7.526 0 003.33-4.184 15.126 15.126 0 01-4.8 1.832A7.585 7.585 0 0025.561 0c-4.19 0-7.564 3.402-7.564 7.572 0 .6.05 1.176.175 1.726C11.88 8.99 6.312 5.975 2.571 1.38a7.62 7.62 0 00-1.036 3.826 7.58 7.58 0 003.362 6.29 7.475 7.475 0 01-3.42-.931v.083c0 3.678 2.624 6.733 6.065 7.437a7.558 7.558 0 01-1.985.25c-.485 0-.974-.028-1.433-.13.98 2.998 3.764 5.202 7.073 5.274a15.21 15.21 0 01-9.385 3.228c-.621 0-1.217-.028-1.812-.104C3.353 28.765 7.327 30 11.612 30c13.93 0 21.545-11.538 21.545-21.54 0-.335-.012-.658-.028-.978 1.503-1.067 2.765-2.398 3.794-3.93z" fill="#21243D"/></svg>